<?xml version="1.0" encoding="UTF-8"?>
<!DOCTYPE svg PUBLIC "-//W3C//DTD SVG 1.1//EN" "http://www.w3.org/Graphics/SVG/1.1/DTD/svg11.dtd">
<svg xmlns="http://www.w3.org/2000/svg" version="1.1" width="400px" height="110px" style="shape-rendering:geometricPrecision; text-rendering:geometricPrecision; image-rendering:optimizeQuality; fill-rule:evenodd; clip-rule:evenodd" xmlns:xlink="http://www.w3.org/1999/xlink">
<g><path style="opacity:1" fill="#fdfefe" d="M -0.5,-0.5 C 132.833,-0.5 266.167,-0.5 399.5,-0.5C 399.5,36.1667 399.5,72.8333 399.5,109.5C 266.167,109.5 132.833,109.5 -0.5,109.5C -0.5,72.8333 -0.5,36.1667 -0.5,-0.5 Z"/></g>
<g><path style="opacity:1" fill="#2eaafc" d="M 62.5,25.5 C 67.1785,25.3342 71.8452,25.5008 76.5,26C 79.3682,26.8608 81.7015,28.5275 83.5,31C 93.692,31.181 102.192,35.0143 109,42.5C 109.978,45.6693 109.478,48.5027 107.5,51C 104.29,52.2015 101.623,54.2015 99.5,57C 93.2597,60.7887 86.593,63.4554 79.5,65C 75.8325,71.0045 70.4992,73.3379 63.5,72C 60.6384,70.2141 59.9717,67.8808 61.5,65C 52.1176,62.8628 42.951,60.0294 34,56.5C 28.4634,61.1008 22.1301,64.1008 15,65.5C 11.7072,64.8621 10.7072,62.8621 12,59.5C 12.9143,57.3359 14.081,55.3359 15.5,53.5C 6.23065,44.6277 7.89731,40.961 20.5,42.5C 25.0028,43.5527 29.0028,45.5527 32.5,48.5C 38.9985,44.083 45.6652,39.9164 52.5,36C 49.7902,34.5402 49.1235,32.5402 50.5,30C 54.4324,27.9716 58.4324,26.4716 62.5,25.5 Z"/></g>
<g><path style="opacity:1" fill="#f1f9fe" d="M 63.5,28.5 C 68.2973,28.1211 72.964,28.6211 77.5,30C 70.5191,30.854 63.6857,32.354 57,34.5C 55.605,34.2196 54.4383,33.5529 53.5,32.5C 56.6881,30.554 60.0214,29.2206 63.5,28.5 Z"/></g>
<g><path style="opacity:1" fill="#31b0bc" d="M 181.5,28.5 C 187.158,27.6794 188.825,29.846 186.5,35C 180.244,35.9338 178.577,33.7672 181.5,28.5 Z"/></g>
<g><path style="opacity:1" fill="#24acb9" d="M 194.5,28.5 C 196.833,28.5 199.167,28.5 201.5,28.5C 201.5,40.5 201.5,52.5 201.5,64.5C 199.167,64.5 196.833,64.5 194.5,64.5C 194.5,52.5 194.5,40.5 194.5,28.5 Z"/></g>
<g><path style="opacity:1" fill="#21acb9" d="M 209.5,28.5 C 211.833,28.5 214.167,28.5 216.5,28.5C 216.5,40.5 216.5,52.5 216.5,64.5C 214.167,64.5 211.833,64.5 209.5,64.5C 209.5,52.5 209.5,40.5 209.5,28.5 Z"/></g>
<g><path style="opacity:1" fill="#36b1bd" d="M 242.5,28.5 C 245.909,28.2493 249.242,28.5827 252.5,29.5C 253.052,31.0026 253.052,32.6693 252.5,34.5C 250.167,34.5 247.833,34.5 245.5,34.5C 245.5,35.8333 245.5,37.1667 245.5,38.5C 247.5,38.5 249.5,38.5 251.5,38.5C 251.5,40.5 251.5,42.5 251.5,44.5C 249.5,44.5 247.5,44.5 245.5,44.5C 245.5,51.1667 245.5,57.8333 245.5,64.5C 242.833,64.5 240.167,64.5 237.5,64.5C 237.5,57.8333 237.5,51.1667 237.5,44.5C 236.167,44.5 234.833,44.5 233.5,44.5C 232.923,41.4503 234.09,39.4503 237,38.5C 237.049,34.0604 238.882,30.727 242.5,28.5 Z"/></g>
<g><path style="opacity:1" fill="#33b0bc" d="M 256.5,28.5 C 262.158,27.6794 263.825,29.846 261.5,35C 255.244,35.9338 253.577,33.7672 256.5,28.5 Z"/></g>
<g><path style="opacity:1" fill="#32b0bc" d="M 293.5,28.5 C 295.833,28.5 298.167,28.5 300.5,28.5C 300.174,32.8839 300.508,37.2172 301.5,41.5C 306.909,37.3198 312.076,37.6531 317,42.5C 318.429,49.7194 318.929,57.0528 318.5,64.5C 315.833,64.5 313.167,64.5 310.5,64.5C 310.666,58.4908 310.499,52.4908 310,46.5C 307.333,43.8333 304.667,43.8333 302,46.5C 301.501,52.4908 301.334,58.4908 301.5,64.5C 298.833,64.5 296.167,64.5 293.5,64.5C 293.5,52.5 293.5,40.5 293.5,28.5 Z"/></g>
<g><path style="opacity:1" fill="#2dafbb" d="M 134.5,30.5 C 138.182,30.3347 141.848,30.5014 145.5,31C 151.271,31.7218 152.105,34.2218 148,38.5C 133.444,34.3888 128.111,39.7221 132,54.5C 135.04,57.9663 138.874,59.2996 143.5,58.5C 143.5,56.1667 143.5,53.8333 143.5,51.5C 141.5,51.5 139.5,51.5 137.5,51.5C 137.5,49.5 137.5,47.5 137.5,45.5C 142.167,45.5 146.833,45.5 151.5,45.5C 151.829,51.2055 151.495,56.8722 150.5,62.5C 130.714,69.0457 121.547,62.0457 123,41.5C 125.437,36.2262 129.271,32.5595 134.5,30.5 Z"/></g>
<g><path style="opacity:1" fill="#fbfdfe" d="M 73.5,33.5 C 77.226,33.1774 80.8927,33.5108 84.5,34.5C 79.0554,43.2876 80.0554,51.4543 87.5,59C 85.26,59.977 82.9267,60.477 80.5,60.5C 80.7067,57.8732 79.54,56.2065 77,55.5C 74.5515,56.9443 72.3848,58.7776 70.5,61C 57.3865,61.2973 45.0532,58.2973 33.5,52C 45.5434,42.8083 58.8768,36.6416 73.5,33.5 Z"/></g>
<g><path style="opacity:1" fill="#f7fcfe" d="M 88.5,34.5 C 95.4142,36.2881 101.414,39.6215 106.5,44.5C 105.754,45.7362 105.421,47.0695 105.5,48.5C 101.712,51.4264 97.712,54.2597 93.5,57C 89.984,56.8505 87.484,55.0172 86,51.5C 83.3807,45.2055 84.2141,39.5388 88.5,34.5 Z"/></g>
<g><path style="opacity:1" fill="#25adb9" d="M 158.5,38.5 C 160.5,38.5 162.5,38.5 164.5,38.5C 164.238,39.9778 164.571,41.3112 165.5,42.5C 168.162,39.5027 171.495,38.1694 175.5,38.5C 175.5,40.8333 175.5,43.1667 175.5,45.5C 172.398,45.154 169.565,45.8207 167,47.5C 165.596,53.0438 165.096,58.7104 165.5,64.5C 163.167,64.5 160.833,64.5 158.5,64.5C 158.5,55.8333 158.5,47.1667 158.5,38.5 Z"/></g>
<g><path style="opacity:1" fill="#24acb9" d="M 180.5,38.5 C 182.833,38.5 185.167,38.5 187.5,38.5C 187.5,47.1667 187.5,55.8333 187.5,64.5C 185.167,64.5 182.833,64.5 180.5,64.5C 180.5,55.8333 180.5,47.1667 180.5,38.5 Z"/></g>
<g><path style="opacity:1" fill="#21acb9" d="M 255.5,38.5 C 257.833,38.5 260.167,38.5 262.5,38.5C 262.5,47.1667 262.5,55.8333 262.5,64.5C 260.167,64.5 257.833,64.5 255.5,64.5C 255.5,55.8333 255.5,47.1667 255.5,38.5 Z"/></g>
<g><path style="opacity:1" fill="#2caebb" d="M 273.5,38.5 C 277.936,38.2101 282.27,38.7101 286.5,40C 287.138,41.7067 287.138,43.54 286.5,45.5C 283.797,45.0445 281.13,44.3779 278.5,43.5C 277,43.4528 276,44.1195 275.5,45.5C 279.851,47.7661 284.018,50.4328 288,53.5C 289.186,58.9962 287.019,62.4962 281.5,64C 277.442,64.7666 273.442,64.5999 269.5,63.5C 268.167,61.5 268.167,59.5 269.5,57.5C 272.715,58.9731 276.049,59.4731 279.5,59C 280.022,58.4387 280.355,57.772 280.5,57C 276.584,54.686 272.751,52.186 269,49.5C 268.333,46.8333 268.333,44.1667 269,41.5C 270.652,40.6006 272.152,39.6006 273.5,38.5 Z"/></g>
<g><path style="opacity:1" fill="#33aafc" d="M 91.5,39.5 C 97.4877,39.664 98.821,42.164 95.5,47C 89.4034,47.1475 88.0701,44.6475 91.5,39.5 Z"/></g>
<g><path style="opacity:1" fill="#f9fcfe" d="M 13.5,45.5 C 18.8135,45.6036 23.8135,46.937 28.5,49.5C 31.823,53.3378 31.1563,56.1712 26.5,58C 23.065,59.6989 19.565,61.1989 16,62.5C 15.4642,58.8311 16.9642,56.1645 20.5,54.5C 21.3857,53.675 21.719,52.675 21.5,51.5C 17.3729,51.3651 14.7062,49.3651 13.5,45.5 Z"/></g>
<g><path style="opacity:1" fill="#e9f6fe" d="M 75.5,59.5 C 76.4972,59.4701 77.1639,59.9701 77.5,61C 74.7914,67.6886 70.1248,70.0219 63.5,68C 66.0062,66.7015 68.6728,65.7015 71.5,65C 73.4388,63.5679 74.7721,61.7346 75.5,59.5 Z"/></g>
<g><path style="opacity:1" fill="#0b0b0b" d="M 130.5,86.5 C 130.167,86.5 129.833,86.5 129.5,86.5C 129.586,85.5041 129.252,84.6708 128.5,84C 126.866,83.5065 125.199,83.3398 123.5,83.5C 123.5,84.8333 123.5,86.1667 123.5,87.5C 125.167,87.5 126.833,87.5 128.5,87.5C 128.5,87.8333 128.5,88.1667 128.5,88.5C 126.833,88.5 125.167,88.5 123.5,88.5C 123.5,90.1667 123.5,91.8333 123.5,93.5C 125.167,93.5 126.833,93.5 128.5,93.5C 128.5,93.8333 128.5,94.1667 128.5,94.5C 126.5,94.5 124.5,94.5 122.5,94.5C 122.5,90.5 122.5,86.5 122.5,82.5C 124.857,82.3367 127.19,82.5034 129.5,83C 130.337,84.0113 130.67,85.1779 130.5,86.5 Z"/></g>
<g><path style="opacity:1" fill="#505050" d="M 173.5,88.5 C 174.833,88.8333 174.833,89.1667 173.5,89.5C 171.5,89.5 169.5,89.5 167.5,89.5C 167.785,91.288 167.452,92.9547 166.5,94.5C 165.167,90.5 165.167,86.5 166.5,82.5C 167.466,84.396 167.799,86.396 167.5,88.5C 169.5,88.5 171.5,88.5 173.5,88.5 Z"/></g>
<g><path style="opacity:1" fill="#666666" d="M 173.5,89.5 C 174.833,89.1667 174.833,88.8333 173.5,88.5C 174.15,80.5503 174.817,80.5503 175.5,88.5C 175.167,90.5 174.833,92.5 174.5,94.5C 173.548,92.9547 173.215,91.288 173.5,89.5 Z"/></g>
<g><path style="opacity:1" fill="#0b0b0b" d="M 199.5,92.5 C 199.5,92.8333 199.5,93.1667 199.5,93.5C 199.44,94.0431 199.107,94.3764 198.5,94.5C 197.34,90.5411 197.173,86.5411 198,82.5C 198.179,86.0252 198.679,89.3586 199.5,92.5 Z"/></g>
<g><path style="opacity:1" fill="#464646" d="M 244.5,83.5 C 247.102,82.0313 249.269,82.698 251,85.5C 251.835,93.3602 248.835,95.6935 242,92.5C 241.333,89.8333 241.333,87.1667 242,84.5C 242.671,83.7476 243.504,83.4142 244.5,83.5 Z"/></g>
<g><path style="opacity:1" fill="#4c4c4c" d="M 215.5,82.5 C 218.833,82.5 222.167,82.5 225.5,82.5C 225.824,86.5546 225.491,90.5546 224.5,94.5C 223.511,90.8927 223.177,87.226 223.5,83.5C 221.5,83.5 219.5,83.5 217.5,83.5C 217.823,87.226 217.489,90.8927 216.5,94.5C 215.509,90.5546 215.176,86.5546 215.5,82.5 Z"/></g>
<g><path style="opacity:1" fill="#ededed" d="M 244.5,83.5 C 249.383,84.4655 250.717,87.2988 248.5,92C 242.92,93.261 241.087,91.0943 243,85.5C 243.717,84.9558 244.217,84.2891 244.5,83.5 Z"/></g>
<g><path style="opacity:1" fill="#3f3f3f" d="M 263.5,83.5 C 267.967,82.1381 269.633,82.1381 268.5,83.5C 267.833,98.1667 267.167,98.1667 266.5,83.5C 265.5,83.5 264.5,83.5 263.5,83.5 Z"/></g>
<g><path style="opacity:1" fill="#c6c6c6" d="M 129.5,86.5 C 128.833,86.5 128.5,86.8333 128.5,87.5C 126.833,87.5 125.167,87.5 123.5,87.5C 123.5,86.1667 123.5,84.8333 123.5,83.5C 125.199,83.3398 126.866,83.5065 128.5,84C 129.252,84.6708 129.586,85.5041 129.5,86.5 Z"/></g>
<g><path style="opacity:1" fill="#454545" d="M 199.5,93.5 C 199.5,93.1667 199.5,92.8333 199.5,92.5C 205.369,78.5339 207.536,79.2006 206,94.5C 205.667,91.5 205.333,88.5 205,85.5C 202.913,88.0703 201.08,90.737 199.5,93.5 Z"/></g>
<g><path style="opacity:1" fill="#eaeaea" d="M 128.5,88.5 C 129.833,90.1667 129.833,91.8333 128.5,93.5C 126.833,93.5 125.167,93.5 123.5,93.5C 123.5,91.8333 123.5,90.1667 123.5,88.5C 125.167,88.5 126.833,88.5 128.5,88.5 Z"/></g>
<g><path style="opacity:1" fill="#585858" d="M 134.5,82.5 C 135.943,83.3351 136.943,84.6684 137.5,86.5C 138.582,84.2163 140.248,83.0496 142.5,83C 140.586,84.4133 139.253,86.2466 138.5,88.5C 143.661,95.8376 143.161,96.171 137,89.5C 136.798,91.2556 136.298,92.9223 135.5,94.5C 134.509,90.5546 134.176,86.5546 134.5,82.5 Z"/></g>
<g><path style="opacity:1" fill="#545454" d="M 129.5,86.5 C 129.833,86.5 130.167,86.5 130.5,86.5C 130.389,87.1174 130.056,87.6174 129.5,88C 132.164,90.5316 131.83,92.6983 128.5,94.5C 128.5,94.1667 128.5,93.8333 128.5,93.5C 129.833,91.8333 129.833,90.1667 128.5,88.5C 128.5,88.1667 128.5,87.8333 128.5,87.5C 128.5,86.8333 128.833,86.5 129.5,86.5 Z"/></g>
<g><path style="opacity:1" fill="#484848" d="M 181.5,82.5 C 187.303,82.81 189.47,85.81 188,91.5C 185.374,95.0719 182.374,95.4052 179,92.5C 178.333,89.8333 178.333,87.1667 179,84.5C 179.995,83.9341 180.828,83.2674 181.5,82.5 Z"/></g>
<g><path style="opacity:1" fill="#eeeeee" d="M 182.5,83.5 C 186.254,84.8276 187.421,87.4942 186,91.5C 182.559,94.0385 180.392,93.0385 179.5,88.5C 179.757,86.3076 180.757,84.6409 182.5,83.5 Z"/></g>
<g><path style="opacity:1" fill="#494949" d="M 143.5,83.5 C 144.077,82.2267 144.743,82.2267 145.5,83.5C 146.383,86.3252 147.55,88.9919 149,91.5C 149.875,88.3723 151.042,85.3723 152.5,82.5C 152.193,87.6128 150.693,92.6128 148,97.5C 146.867,99.2112 145.367,99.7112 143.5,99C 145.967,98.2037 147.3,96.537 147.5,94C 146.437,90.2973 145.103,86.7973 143.5,83.5 Z"/></g>
<g><path style="opacity:1" fill="#414141" d="M 157.5,82.5 C 159.288,82.2148 160.955,82.5481 162.5,83.5C 157.429,83.9805 155.596,86.6472 157,91.5C 158.825,92.1029 160.659,92.7696 162.5,93.5C 160.051,94.9097 157.884,94.5763 156,92.5C 155.037,88.8513 155.537,85.518 157.5,82.5 Z"/></g>
<g><path style="opacity:1" fill="#474747" d="M 256.5,82.5 C 258.288,82.2148 259.955,82.5481 261.5,83.5C 255.978,83.5988 254.144,86.2655 256,91.5C 257.825,92.1029 259.659,92.7696 261.5,93.5C 255.251,94.747 252.751,92.0803 254,85.5C 255.045,84.6266 255.878,83.6266 256.5,82.5 Z"/></g>
<g><path style="opacity:1" fill="#3c3c3c" d="M 280.5,83.5 C 281.496,83.4142 282.329,83.7476 283,84.5C 284.004,87.9926 283.504,91.1592 281.5,94C 275.242,94.7015 272.742,91.8682 274,85.5C 275.731,82.698 277.898,82.0313 280.5,83.5 Z"/></g>
<g><path style="opacity:1" fill="#e9e9e9" d="M 280.5,83.5 C 282.391,85.8357 282.891,88.5024 282,91.5C 278.182,94.4983 276.016,93.4983 275.5,88.5C 275.511,85.1554 277.178,83.4887 280.5,83.5 Z"/></g>
<g><path style="opacity:1" fill="#555555" d="M 235.5,83.5 C 236.496,83.4142 237.329,83.7476 238,84.5C 238.893,87.9162 238.393,91.0828 236.5,94C 234.559,94.7429 232.726,94.5762 231,93.5C 230.808,95.5767 230.308,97.5767 229.5,99.5C 228.167,93.8333 228.167,88.1667 229.5,82.5C 231.537,82.4983 233.537,82.8316 235.5,83.5 Z"/></g>
<g><path style="opacity:1" fill="#ededed" d="M 235.5,83.5 C 236.569,86.408 236.736,89.408 236,92.5C 232.474,93.8321 230.641,92.4988 230.5,88.5C 230.511,85.1554 232.178,83.4887 235.5,83.5 Z"/></g>
</svg>
